/vscmnt/brussel_pixiu_data/_data_brussel/112/vsc11236/PredSimResults/SUBJ04opt3D/worker_01.mot
version=1
nRows=5
nColumns=50
inDegrees=yes
endheader
                time	         pelvis_tilt	         pelvis_list	     pelvis_rotation	           pelvis_tx	           pelvis_ty	           pelvis_tz	       hip_flexion_r	     hip_adduction_r	      hip_rotation_r	        knee_angle_r	       ankle_angle_r	         mtp_angle_r	       hip_flexion_l	     hip_adduction_l	      hip_rotation_l	        knee_angle_l	       ankle_angle_l	         mtp_angle_l	    lumbar_extension	      lumbar_bending	     lumbar_rotation	 ercspn_r/activation	 intobl_r/activation	 extobl_r/activation	    abd_r/activation	    add_r/activation	hamstrings_r/activation	bifemsh_r/activation	glut_max_r/activation	iliopsoas_r/activation	rect_fem_r/activation	  vasti_r/activation	gastroc_r/activation	 soleus_r/activation	tib_ant_r/activation	 ercspn_l/activation	 intobl_l/activation	 extobl_l/activation	    abd_l/activation	    add_l/activation	hamstrings_l/activation	bifemsh_l/activation	glut_max_l/activation	iliopsoas_l/activation	rect_fem_l/activation	  vasti_l/activation	gastroc_l/activation	 soleus_l/activation	tib_ant_l/activation	
          0.97538743	         -2.36921960	         -7.15048035	         -6.17600790	          0.58523246	          0.87685032	         -0.00031910	        -11.01081991	          7.17746154	        -13.23789188	         -5.84512056	         13.61723233	         15.78235522	         32.16791121	         -7.22123357	         -1.76379815	        -12.63780520	          0.42440943	          0.22209585	        -15.16654793	         18.89988375	          3.88216931	          0.01325128	          0.00999999	          0.01495649	          0.06299454	          0.01000000	          0.01375306	          0.15979837	          0.01752226	          0.05439085	          0.00999999	          0.00999999	          0.19129703	          0.16042615	          0.01325128	          0.00999999	          0.07122966	          0.06751872	          0.00999999	          0.08586102	          0.03303354	          0.14939626	          0.04836463	          0.15162187	          0.08645940	          0.02438632	          0.02796530	          0.01325129	          0.26941406	
          0.99489518	         -2.57937098	         -7.05525100	         -5.41681659	          0.59981227	          0.87443106	         -0.00203925	        -11.49038344	          7.04002818	        -14.39816218	         -6.35786128	         13.54403220	         17.11713819	         31.81713536	         -6.74473741	         -1.95540138	        -13.10735105	          0.05735141	          0.21504973	        -14.71959517	         17.90282047	          4.36688851	          0.00999999	          0.00999999	          0.01128682	          0.04753841	          0.00999999	          0.01325129	          0.12059079	          0.01325128	          0.04104570	          0.00999999	          0.00999999	          0.18481782	          0.17094777	          0.00999999	          0.00999999	          0.06646528	          0.05095256	          0.04124051	          0.07466582	          0.04110369	          0.11274091	          0.03649805	          0.11442045	          0.06524602	          0.01840298	          0.02110383	          0.01000000	          0.29726431	
          1.01440293	         -2.78251375	         -6.92050459	         -4.60542541	          0.61479558	          0.87267626	         -0.00379484	        -11.86026658	          6.84710719	        -15.62412838	         -7.09920847	         13.23155399	         18.58741333	         31.55518627	         -6.31499329	         -2.28973174	        -13.68945350	         -0.38243994	          0.20090752	        -14.23413133	         16.80014204	          4.85087324	          0.01737055	          0.00999999	          0.00999999	          0.03587455	          0.00999999	          0.01000000	          0.09100305	          0.00999999	          0.03263015	          0.03157264	          0.00999999	          0.15900434	          0.16926885	          0.00999999	          0.00999999	          0.05015759	          0.03845102	          0.06526898	          0.08979872	          0.04271934	          0.08507919	          0.02754302	          0.08634664	          0.04923748	          0.04503710	          0.01592587	          0.00999999	          0.31879351	
          1.03391068	         -2.98171739	         -6.77332829	         -3.73945138	          0.62992834	          0.87183042	         -0.00564522	        -12.06198404	          6.60704520	        -16.92504616	         -8.13483915	         12.61260325	         20.17920807	         31.40637930	         -5.90530800	         -2.74741122	        -14.48087374	         -0.70012545	          0.18573551	        -13.74646585	         15.63802745	          5.33499690	          0.02948864	          0.00999999	          0.00999999	          0.02707249	          0.00999999	          0.01000000	          0.06867485	          0.01415410	          0.02462413	          0.02382609	          0.02261602	          0.11999158	          0.15259561	          0.00999999	          0.00999999	          0.03785109	          0.02901681	          0.07594586	          0.07985087	          0.04658897	          0.06420445	          0.02078516	          0.06516092	          0.03715674	          0.08288862	          0.01201835	          0.00999999	          0.32801451	
          1.05341843	         -3.17939950	         -6.62179473	         -2.82656055	          0.64512084	          0.87201313	         -0.00761469	        -12.07509332	          6.30973359	        -18.29832089	         -9.48447412	         11.65188017	         21.85670039	         31.24332341	         -5.48974690	         -3.21150645	        -15.27085216	         -0.83648127	          0.17249395	        -13.26629976	         14.44091254	          5.81855393	          0.05082894	          0.00999999	          0.00999999	          0.02043008	          0.01000000	          0.01000002	          0.05182503	          0.02326091	          0.01858243	          0.01798020	          0.03424954	          0.09055085	          0.12569333	          0.00999999	          0.01000000	          0.02856408	          0.02189734	          0.07983453	          0.06514606	          0.05218414	          0.04845146	          0.03952223	          0.04917326	          0.02804009	          0.10908697	          0.00999999	          0.00999999	          0.32574216	
